<?xml version="1.0" encoding="utf-8"?>
<!-- Generator: Adobe Illustrator 14.0.0, SVG Export Plug-In . SVG Version: 6.00 Build 43363)  -->
<!DOCTYPE svg PUBLIC "-//W3C//DTD SVG 1.1//EN" "http://www.w3.org/Graphics/SVG/1.1/DTD/svg11.dtd">
<svg version="1.1" id="Layer_1" xmlns="http://www.w3.org/2000/svg" xmlns:xlink="http://www.w3.org/1999/xlink" x="0px" y="0px"
	 width="600px" height="600px" viewBox="0 0 600 600" enable-background="new 0 0 600 600" xml:space="preserve">
<g>
	<title>background</title>
	<rect id="canvas_background" x="-1" y="-1" fill="none" width="602" height="602"/>
</g>
<g>
	<title>Layer 1</title>
	<path id="svg_23" fill="#007FFF" d="M307.865,7.603C146.578,4.516,13.423,132.48,10.455,293.411
		C9.44,348.408,23.95,400.081,49.739,444.464L5.421,566.328l117.823-37.76c48.117,37.491,108.165,60.571,173.873,61.829
		c161.288,3.087,294.443-124.878,297.411-285.809S469.154,10.689,307.865,7.603L307.865,7.603z"/>
	<path id="svg_24" fill="#FFFFFF" d="M359.08,447.639l-124.743,0.056c-17.981-0.03-30.292-18.467-30.275-37.439l-0.029-12.754
		c-35.6-0.014-61.503-32.597-61.578-70.597c-0.102-38.675,25.146-70.462,54.619-70.451l231.354-0.101
		C427.987,453.652,440.141,448.473,359.08,447.639z M203.779,285.385L203.779,285.385l-6.635,0.004
		c-24.389-0.035-32.147,28.091-32,41.718c0.028,22.001,13.441,43.101,38.826,41.039L203.779,285.385z M462.896,457.868
		c0.044,28.429-17.739,25.346-32.045,25.437l-258.044,0.112c-17.064-0.077-32.023-0.159-32.157-25.409L462.896,457.868
		L462.896,457.868z"/>
	<path id="svg_32" fill="none" stroke="#FFFFFF" stroke-width="30" stroke-linecap="round" d="M294.514,194.466
		c0-1.02-6.267-25.53-6.424-26.016c-1.967-6.084,7.577-18.95,21.409-18.539c0,0,49.668,7.089,81.006-8.524
		c7.182-3.578-20.344-30.672-25.177-35.216C330,75.307,304.094,76.373,299.25,75.632c-5.414-0.83-26.906,0.092-30.701,0.936
		c-6.799,1.439-24.863,3.98-25.178,13.781c-0.033,1.021-6.371,1.815,20.483,24.58l7.392,5.573"/>
	<polygon fill="#007FFF" points="295.158,181.258 297.808,229.879 254.375,207.864 	"/>
	<circle fill="#FFFFFF" cx="298.638" cy="226.943" r="12.184"/>
	<polygon fill="#007FFF" points="339.262,201.633 341.911,250.253 298.479,228.239 	"/>
</g>
</svg>
